<?xml version="1.0" encoding="UTF-8" standalone="no"?>
<svg
   xmlns:osb="http://www.openswatchbook.org/uri/2009/osb"
   xmlns:dc="http://purl.org/dc/elements/1.1/"
   xmlns:cc="http://creativecommons.org/ns#"
   xmlns:rdf="http://www.w3.org/1999/02/22-rdf-syntax-ns#"
   xmlns:svg="http://www.w3.org/2000/svg"
   xmlns="http://www.w3.org/2000/svg"
   xmlns:sodipodi="http://sodipodi.sourceforge.net/DTD/sodipodi-0.dtd"
   xmlns:inkscape="http://www.inkscape.org/namespaces/inkscape"
   version="1.1"
   viewBox="0.0 0.0 348.0 348.0"
   fill="none"
   stroke="none"
   stroke-linecap="square"
   stroke-miterlimit="10"
   id="svg2"
   inkscape:version="0.91 r13725"
   sodipodi:docname="Component.svg">
  <metadata
     id="metadata25">
    <rdf:RDF>
      <cc:Work
         rdf:about="">
        <dc:format>image/svg+xml</dc:format>
        <dc:type
           rdf:resource="http://purl.org/dc/dcmitype/StillImage" />
      </cc:Work>
    </rdf:RDF>
  </metadata>
  <defs
     id="defs23">
    <linearGradient
       id="linearGradient4287"
       osb:paint="solid">
      <stop
         style="stop-color:#ffffff;stop-opacity:1;"
         offset="0"
         id="stop4289" />
    </linearGradient>
  </defs>
  <sodipodi:namedview
     pagecolor="#ffffff"
     bordercolor="#666666"
     borderopacity="1"
     objecttolerance="10"
     gridtolerance="10"
     guidetolerance="10"
     inkscape:pageopacity="0"
     inkscape:pageshadow="2"
     inkscape:window-width="1536"
     inkscape:window-height="801"
     id="namedview21"
     showgrid="false"
     inkscape:zoom="1.3563218"
     inkscape:cx="120.52266"
     inkscape:cy="218.57313"
     inkscape:window-x="-8"
     inkscape:window-y="-8"
     inkscape:window-maximized="1"
     inkscape:current-layer="g4206" />
  <clipPath
     id="p.0">
    <path
       d="m0 0l348.0 0l0 348.0l-348.0 0l0 -348.0z"
       clip-rule="nonzero"
       id="path5" />
  </clipPath>
  <g
     clip-path="url(#p.0)"
     id="g7">
    <path
       d="m0 0l348.0 0l0 348.0l-348.0 0z"
       id="path9"
       fill-rule="nonzero"
       fill-opacity="0.0"
       fill="#000000" />
    <path
       d="m-6.0 0l348.0 0l0 347.9685l-348.0 0z"
       id="path11"
       fill-rule="nonzero"
       fill="#ffffff" />
    <path
       d="m5.07874 5.7758217l336.9134 0l0 337.6693l-336.9134 0z"
       id="path13"
       fill-rule="nonzero"
       fill-opacity="0.0"
       fill="#000000" />
    <path
       d="m5.07874 5.7758217l336.9134 0l0 337.6693l-336.9134 0z"
       id="path15"
       stroke-linejoin="round"
       stroke-linecap="butt"
       stroke-width="2.0"
       stroke="#000000"
       fill-rule="nonzero" />
    <path
       d="m282.73444 40.553925l0 0c0 -8.375591 6.966034 -15.165352 15.5590515 -15.165352l0 0c4.126526 0 8.084015 1.5977726 11.001923 4.441828c2.9178772 2.844057 4.557129 6.7014217 4.557129 10.723524l0 0c0 8.375595 -6.9660034 15.165356 -15.5590515 15.165356l0 0c-8.593018 0 -15.5590515 -6.7897606 -15.5590515 -15.165356z"
       id="path17"
       fill-rule="nonzero"
       fill="#ffffff" />
    <path
       d="m282.73444 40.553925l0 0c0 -8.375591 6.966034 -15.165352 15.5590515 -15.165352l0 0c4.126526 0 8.084015 1.5977726 11.001923 4.441828c2.9178772 2.844057 4.557129 6.7014217 4.557129 10.723524l0 0c0 8.375595 -6.9660034 15.165356 -15.5590515 15.165356l0 0c-8.593018 0 -15.5590515 -6.7897606 -15.5590515 -15.165356z"
       id="path19"
       stroke-linejoin="round"
       stroke-linecap="butt"
       stroke-width="2.0"
       stroke="#000000"
       fill-rule="nonzero" />
  </g>
  <rect
     style="fill:none;fill-opacity:1;stroke:#000000;stroke-width:2.04933715;stroke-miterlimit:10;stroke-dasharray:none;stroke-opacity:1"
     id="rect4153"
     width="199.75574"
     height="283.80658"
     x="25.829754"
     y="32.465347" />
  <g
     id="g4231"
     transform="translate(5.161017,-1.4745763)">
    <path
       sodipodi:nodetypes="cccccccc"
       inkscape:connector-curvature="0"
       id="path4155"
       d="m 39.247503,95.842002 9.378211,-17.406165 10.003427,17.806307 9.378211,-18.40652 8.252825,18.406522 8.878043,-19.406875 8.627953,18.806661 10.753687,-18.60659"
       style="fill:none;fill-rule:evenodd;stroke:#000000;stroke-width:2;stroke-linecap:butt;stroke-linejoin:miter;stroke-miterlimit:10;stroke-dasharray:none;stroke-opacity:1" />
    <path
       sodipodi:nodetypes="cccccccc"
       inkscape:connector-curvature="0"
       id="path4155-2"
       d="m 131.78635,94.817297 9.37821,-17.406165 10.00343,17.806307 9.37821,-18.40652 8.25283,18.406522 8.87804,-19.406875 8.62795,18.806661 10.75369,-18.60659"
       style="fill:none;fill-rule:evenodd;stroke:#000000;stroke-width:2;stroke-linecap:butt;stroke-linejoin:miter;stroke-miterlimit:10;stroke-dasharray:none;stroke-opacity:1" />
    <path
       sodipodi:nodetypes="cccccccc"
       inkscape:connector-curvature="0"
       id="path4155-7"
       d="m 37.593197,181.59236 9.378211,-17.40616 10.003427,17.80631 9.378211,-18.40653 8.252825,18.40653 8.878043,-19.40688 8.62795,18.80666 10.753686,-18.60659"
       style="fill:none;fill-rule:evenodd;stroke:#000000;stroke-width:2;stroke-linecap:butt;stroke-linejoin:miter;stroke-miterlimit:10;stroke-dasharray:none;stroke-opacity:1" />
    <path
       sodipodi:nodetypes="cccccccc"
       inkscape:connector-curvature="0"
       id="path4155-2-2"
       d="m 130.13204,180.56766 9.37821,-17.40617 10.00343,17.80631 9.37821,-18.40652 8.25283,18.40652 8.87804,-19.40688 8.62795,18.80667 10.75369,-18.60659"
       style="fill:none;fill-rule:evenodd;stroke:#000000;stroke-width:2;stroke-linecap:butt;stroke-linejoin:miter;stroke-miterlimit:10;stroke-dasharray:none;stroke-opacity:1" />
    <path
       sodipodi:nodetypes="cccccccc"
       inkscape:connector-curvature="0"
       id="path4155-0"
       d="m 40.542349,272.27881 9.378212,-17.40617 10.003427,17.80631 9.378212,-18.40652 8.25282,18.40652 8.87805,-19.40687 8.62795,18.80666 10.75369,-18.60659"
       style="fill:none;fill-rule:evenodd;stroke:#000000;stroke-width:2;stroke-linecap:butt;stroke-linejoin:miter;stroke-miterlimit:10;stroke-dasharray:none;stroke-opacity:1" />
    <path
       sodipodi:nodetypes="cccccccc"
       inkscape:connector-curvature="0"
       id="path4155-2-1"
       d="m 133.0812,271.2541 9.37821,-17.40616 10.00343,17.8063 9.37821,-18.40652 8.25283,18.40653 8.87804,-19.40688 8.62795,18.80666 10.75369,-18.60659"
       style="fill:none;fill-rule:evenodd;stroke:#000000;stroke-width:2;stroke-linecap:butt;stroke-linejoin:miter;stroke-miterlimit:10;stroke-dasharray:none;stroke-opacity:1" />
  </g>
  <g
     id="g4206"
     transform="matrix(0.95196679,0,0,0.95196679,13.36868,24.71072)">
    <path
       sodipodi:nodetypes="csccccscc"
       inkscape:connector-curvature="0"
       id="path4285"
       d="m 265.88414,233.56555 c -8.60214,-33.36585 7.47819,-56.28031 21.89634,-56.30488 32.39749,-0.0552 27.10975,42.48933 26.84908,55.52287 l -6.16649,-5.56369 -6.68783,5.90583 -11.02963,-5.91398 -10.32908,6.41902 -8.40663,-5.93027 z"
       style="fill:#000000;fill-opacity:1;fill-rule:evenodd;stroke:#000000;stroke-width:1px;stroke-linecap:butt;stroke-linejoin:miter;stroke-opacity:1" />
    <path
       sodipodi:nodetypes="sssccs"
       inkscape:connector-curvature="0"
       id="path4239"
       d="m 311.36207,208.96817 c 0,13.45448 -9.67416,24.3615 -21.60785,24.3615 -11.93369,0 -21.60785,-10.90702 -21.60785,-24.3615 0,-6.72724 0.0725,-5.51884 3.98276,-9.9274 8.05704,-2.28253 19.1174,-1.23255 34.98951,-0.52134 3.91025,4.40856 4.24343,3.7215 4.24343,10.44874 z"
       style="fill:#000000;fill-opacity:1;stroke:#000000;stroke-width:1.18900001;stroke-miterlimit:10;stroke-dasharray:none;stroke-opacity:1" />
    <ellipse
       ry="18.181784"
       rx="8.4717989"
       cy="252.26869"
       cx="289.86584"
       id="path4160"
       style="fill:#000000;fill-opacity:1;stroke:#000000;stroke-width:2;stroke-miterlimit:10;stroke-dasharray:none;stroke-opacity:1" />
    <path
       inkscape:transform-center-y="-6.2419106"
       d="m 312.11776,275.49813 -43.24523,0 21.62262,-37.45146 z"
       inkscape:randomized="0"
       inkscape:rounded="0"
       inkscape:flatsided="true"
       sodipodi:arg2="1.5707963"
       sodipodi:arg1="0.52359878"
       sodipodi:r2="12.483821"
       sodipodi:r1="24.967644"
       sodipodi:cy="263.01431"
       sodipodi:cx="290.49515"
       sodipodi:sides="3"
       id="path4162"
       style="fill:#000000;fill-opacity:1;stroke:#000000;stroke-width:2;stroke-miterlimit:10;stroke-dasharray:none;stroke-opacity:1"
       sodipodi:type="star" />
    <ellipse
       ry="16.957626"
       rx="1.8432204"
       cy="281.59933"
       cx="285.02509"
       id="path4166"
       style="fill:#000000;fill-opacity:1;stroke:#000000;stroke-width:2;stroke-miterlimit:10;stroke-dasharray:none;stroke-opacity:1" />
    <ellipse
       ry="16.957626"
       rx="1.8432204"
       cy="281.59937"
       cx="296.34509"
       id="path4166-6"
       style="fill:#000000;fill-opacity:1;stroke:#000000;stroke-width:2;stroke-miterlimit:10;stroke-dasharray:none;stroke-opacity:1" />
    <path
       inkscape:connector-curvature="0"
       id="path4189"
       d="m 286.73779,237.73629 -19.15929,19.1593"
       style="fill:none;fill-rule:evenodd;stroke:#000000;stroke-width:6;stroke-linecap:round;stroke-linejoin:miter;stroke-miterlimit:10;stroke-dasharray:none;stroke-opacity:1" />
    <path
       inkscape:connector-curvature="0"
       id="path4189-1"
       d="m 293.5804,237.28011 19.15929,19.1593"
       style="fill:none;fill-rule:evenodd;stroke:#000000;stroke-width:6;stroke-linecap:round;stroke-linejoin:miter;stroke-miterlimit:10;stroke-dasharray:none;stroke-opacity:1" />
  </g>
</svg>
